<?xml version="1.0" encoding="UTF-8"?>
<svg xmlns="http://www.w3.org/2000/svg" version="1.1" width="450" height="450" viewBox="0 0 450 450"><rect x="0" y="0" width="450" height="450" fill="#ffffff"/><g transform="scale(18)"><g transform="translate(0,0)"><path fill-rule="evenodd" d="M9 0L9 1L8 1L8 2L9 2L9 3L8 3L8 4L10 4L10 7L11 7L11 8L6 8L6 9L5 9L5 8L0 8L0 10L2 10L2 9L5 9L5 12L4 12L4 10L3 10L3 11L2 11L2 12L1 12L1 11L0 11L0 12L1 12L1 13L0 13L0 17L1 17L1 13L4 13L4 14L5 14L5 15L7 15L7 16L6 16L6 17L8 17L8 19L9 19L9 20L8 20L8 25L11 25L11 22L12 22L12 23L15 23L15 24L12 24L12 25L15 25L15 24L18 24L18 23L16 23L16 22L17 22L17 21L18 21L18 22L19 22L19 25L25 25L25 21L24 21L24 20L25 20L25 18L23 18L23 16L24 16L24 17L25 17L25 14L23 14L23 13L24 13L24 12L25 12L25 10L23 10L23 9L24 9L24 8L23 8L23 9L22 9L22 8L21 8L21 10L23 10L23 11L24 11L24 12L20 12L20 8L19 8L19 10L18 10L18 11L17 11L17 10L15 10L15 11L14 11L14 12L13 12L13 10L14 10L14 9L15 9L15 8L13 8L13 9L11 9L11 8L12 8L12 7L13 7L13 5L15 5L15 6L14 6L14 7L15 7L15 6L16 6L16 8L17 8L17 9L18 9L18 8L17 8L17 2L16 2L16 1L17 1L17 0L16 0L16 1L15 1L15 2L14 2L14 3L12 3L12 2L13 2L13 1L11 1L11 2L10 2L10 0ZM15 2L15 3L16 3L16 2ZM10 3L10 4L11 4L11 7L12 7L12 4L11 4L11 3ZM15 4L15 5L16 5L16 4ZM8 5L8 7L9 7L9 5ZM6 9L6 10L7 10L7 11L6 11L6 12L8 12L8 13L6 13L6 14L9 14L9 16L8 16L8 17L9 17L9 19L12 19L12 20L14 20L14 19L15 19L15 20L16 20L16 18L15 18L15 17L16 17L16 15L15 15L15 14L16 14L16 13L17 13L17 16L18 16L18 15L20 15L20 16L23 16L23 14L21 14L21 13L20 13L20 12L19 12L19 11L18 11L18 12L19 12L19 13L17 13L17 12L15 12L15 13L13 13L13 12L10 12L10 13L13 13L13 14L9 14L9 11L8 11L8 9ZM10 9L10 11L12 11L12 10L11 10L11 9ZM19 13L19 14L20 14L20 13ZM2 14L2 15L3 15L3 14ZM13 14L13 15L12 15L12 16L13 16L13 17L11 17L11 18L13 18L13 17L15 17L15 16L13 16L13 15L14 15L14 14ZM10 15L10 16L11 16L11 15ZM17 17L17 20L20 20L20 17ZM21 17L21 18L22 18L22 17ZM18 18L18 19L19 19L19 18ZM21 19L21 20L24 20L24 19ZM9 20L9 21L11 21L11 20ZM14 21L14 22L16 22L16 21ZM21 21L21 22L20 22L20 23L21 23L21 24L24 24L24 22L23 22L23 21ZM9 22L9 24L10 24L10 22ZM21 22L21 23L23 23L23 22ZM0 0L0 7L7 7L7 0ZM1 1L1 6L6 6L6 1ZM2 2L2 5L5 5L5 2ZM18 0L18 7L25 7L25 0ZM19 1L19 6L24 6L24 1ZM20 2L20 5L23 5L23 2ZM0 18L0 25L7 25L7 18ZM1 19L1 24L6 24L6 19ZM2 20L2 23L5 23L5 20Z" fill="#000000"/></g></g></svg>
