<?xml version="1.0" encoding="UTF-8"?>
<svg xmlns="http://www.w3.org/2000/svg" version="1.1" width="450" height="450" viewBox="0 0 450 450"><rect x="0" y="0" width="450" height="450" fill="#ffffff"/><g transform="scale(18)"><g transform="translate(0,0)"><path fill-rule="evenodd" d="M8 0L8 1L10 1L10 0ZM16 0L16 1L17 1L17 0ZM14 1L14 2L11 2L11 4L10 4L10 3L9 3L9 2L8 2L8 5L9 5L9 6L8 6L8 7L9 7L9 8L8 8L8 9L9 9L9 10L10 10L10 9L9 9L9 8L10 8L10 7L11 7L11 12L12 12L12 10L14 10L14 11L13 11L13 13L14 13L14 14L18 14L18 16L17 16L17 15L16 15L16 16L15 16L15 17L16 17L16 19L15 19L15 20L14 20L14 21L12 21L12 20L13 20L13 19L12 19L12 20L11 20L11 19L10 19L10 18L12 18L12 17L13 17L13 18L14 18L14 16L13 16L13 14L12 14L12 16L11 16L11 17L10 17L10 16L9 16L9 17L8 17L8 18L9 18L9 19L10 19L10 21L11 21L11 23L12 23L12 25L15 25L15 24L14 24L14 21L15 21L15 20L16 20L16 22L17 22L17 24L19 24L19 25L25 25L25 24L23 24L23 23L24 23L24 22L25 22L25 20L24 20L24 19L25 19L25 17L24 17L24 16L25 16L25 15L24 15L24 14L25 14L25 13L24 13L24 12L23 12L23 11L22 11L22 10L23 10L23 8L20 8L20 9L19 9L19 11L18 11L18 10L16 10L16 11L17 11L17 13L15 13L15 10L14 10L14 9L18 9L18 8L17 8L17 6L16 6L16 7L15 7L15 6L14 6L14 4L15 4L15 5L17 5L17 3L16 3L16 2L15 2L15 1ZM12 4L12 5L10 5L10 6L9 6L9 7L10 7L10 6L11 6L11 7L12 7L12 8L13 8L13 9L14 9L14 6L13 6L13 7L12 7L12 5L13 5L13 4ZM0 8L0 10L1 10L1 9L4 9L4 8ZM6 8L6 9L5 9L5 10L2 10L2 11L0 11L0 13L1 13L1 15L0 15L0 16L1 16L1 15L2 15L2 17L4 17L4 16L3 16L3 15L5 15L5 16L6 16L6 17L7 17L7 16L8 16L8 15L7 15L7 14L9 14L9 15L11 15L11 13L10 13L10 12L8 12L8 11L7 11L7 10L6 10L6 9L7 9L7 8ZM24 8L24 9L25 9L25 8ZM20 9L20 10L21 10L21 9ZM5 10L5 14L7 14L7 13L6 13L6 12L7 12L7 11L6 11L6 10ZM2 11L2 14L4 14L4 12L3 12L3 11ZM19 11L19 13L20 13L20 12L21 12L21 11ZM9 13L9 14L10 14L10 13ZM21 13L21 14L20 14L20 16L21 16L21 17L22 17L22 18L24 18L24 17L22 17L22 16L23 16L23 15L21 15L21 14L22 14L22 13ZM6 15L6 16L7 16L7 15ZM17 17L17 20L20 20L20 17ZM18 18L18 19L19 19L19 18ZM22 19L22 20L21 20L21 23L22 23L22 22L23 22L23 19ZM8 21L8 25L11 25L11 24L9 24L9 23L10 23L10 22L9 22L9 21ZM17 21L17 22L18 22L18 21ZM12 22L12 23L13 23L13 22ZM19 23L19 24L20 24L20 23ZM0 0L0 7L7 7L7 0ZM1 1L1 6L6 6L6 1ZM2 2L2 5L5 5L5 2ZM18 0L18 7L25 7L25 0ZM19 1L19 6L24 6L24 1ZM20 2L20 5L23 5L23 2ZM0 18L0 25L7 25L7 18ZM1 19L1 24L6 24L6 19ZM2 20L2 23L5 23L5 20Z" fill="#000000"/></g></g></svg>
