<?xml version="1.0" encoding="UTF-8"?>
<svg xmlns="http://www.w3.org/2000/svg" version="1.1" width="450" height="450" viewBox="0 0 450 450"><rect x="0" y="0" width="450" height="450" fill="#ffffff"/><g transform="scale(18)"><g transform="translate(0,0)"><path fill-rule="evenodd" d="M8 0L8 4L9 4L9 5L8 5L8 7L9 7L9 6L10 6L10 9L11 9L11 10L9 10L9 11L8 11L8 12L5 12L5 10L6 10L6 11L7 11L7 10L8 10L8 9L7 9L7 8L4 8L4 9L3 9L3 14L4 14L4 16L3 16L3 15L2 15L2 16L0 16L0 17L2 17L2 16L3 16L3 17L7 17L7 16L5 16L5 13L7 13L7 14L6 14L6 15L7 15L7 14L8 14L8 18L9 18L9 19L8 19L8 21L9 21L9 23L8 23L8 25L10 25L10 23L11 23L11 24L12 24L12 25L13 25L13 23L15 23L15 25L16 25L16 23L18 23L18 24L21 24L21 23L22 23L22 25L25 25L25 24L24 24L24 22L25 22L25 21L24 21L24 19L22 19L22 18L23 18L23 13L24 13L24 11L23 11L23 9L25 9L25 8L21 8L21 9L20 9L20 8L19 8L19 9L20 9L20 10L19 10L19 11L18 11L18 10L17 10L17 11L18 11L18 12L17 12L17 13L16 13L16 8L15 8L15 9L14 9L14 10L15 10L15 11L14 11L14 12L15 12L15 13L9 13L9 12L10 12L10 11L13 11L13 9L11 9L11 8L12 8L12 7L13 7L13 6L14 6L14 7L15 7L15 5L16 5L16 7L17 7L17 4L16 4L16 3L15 3L15 1L17 1L17 0L13 0L13 1L11 1L11 2L12 2L12 3L13 3L13 4L12 4L12 5L13 5L13 6L12 6L12 7L11 7L11 3L10 3L10 2L9 2L9 0ZM13 2L13 3L14 3L14 2ZM13 4L13 5L15 5L15 4ZM0 8L0 9L2 9L2 8ZM4 9L4 10L5 10L5 9ZM6 9L6 10L7 10L7 9ZM21 9L21 10L20 10L20 13L17 13L17 14L16 14L16 15L15 15L15 14L14 14L14 15L12 15L12 16L11 16L11 14L9 14L9 13L8 13L8 14L9 14L9 15L10 15L10 16L9 16L9 18L10 18L10 19L9 19L9 21L10 21L10 22L11 22L11 21L10 21L10 20L12 20L12 19L11 19L11 17L15 17L15 18L13 18L13 22L12 22L12 23L13 23L13 22L14 22L14 21L16 21L16 17L15 17L15 16L17 16L17 14L19 14L19 15L18 15L18 16L19 16L19 15L20 15L20 16L21 16L21 17L22 17L22 9ZM0 10L0 14L1 14L1 11L2 11L2 10ZM4 12L4 13L5 13L5 12ZM20 13L20 14L21 14L21 13ZM24 16L24 17L25 17L25 16ZM17 17L17 20L20 20L20 17ZM18 18L18 19L19 19L19 18ZM14 19L14 20L15 20L15 19ZM21 19L21 21L19 21L19 22L20 22L20 23L21 23L21 21L22 21L22 23L23 23L23 21L22 21L22 19ZM17 21L17 22L18 22L18 21ZM0 0L0 7L7 7L7 0ZM1 1L1 6L6 6L6 1ZM2 2L2 5L5 5L5 2ZM18 0L18 7L25 7L25 0ZM19 1L19 6L24 6L24 1ZM20 2L20 5L23 5L23 2ZM0 18L0 25L7 25L7 18ZM1 19L1 24L6 24L6 19ZM2 20L2 23L5 23L5 20Z" fill="#000000"/></g></g></svg>
